<mxfile host="Electron" agent="Mozilla/5.0 (Windows NT 10.0; Win64; x64) AppleWebKit/537.36 (KHTML, like Gecko) draw.io/26.2.2 Chrome/134.0.6998.178 Electron/35.1.2 Safari/537.36" version="26.2.2">
  <diagram name="Pagina-1" id="FVV8O9FPnY8rYmlxqVFg">
    <mxGraphModel dx="1190" dy="701" grid="1" gridSize="10" guides="1" tooltips="1" connect="1" arrows="1" fold="1" page="1" pageScale="1" pageWidth="827" pageHeight="1169" math="1" shadow="0">
      <root>
        <mxCell id="0" />
        <mxCell id="1" parent="0" />
        <mxCell id="tRHXc4Zp7QkK6JCRTx4k-26" value="$$T v_{R}$$" style="text;html=1;align=center;verticalAlign=middle;resizable=0;points=[];autosize=1;strokeColor=none;fillColor=none;" parent="1" vertex="1">
          <mxGeometry x="380" y="413" width="90" height="30" as="geometry" />
        </mxCell>
        <mxCell id="tRHXc4Zp7QkK6JCRTx4k-37" value="$$\tau&#39; v_{R}$$" style="text;html=1;align=center;verticalAlign=middle;resizable=0;points=[];autosize=1;strokeColor=none;fillColor=none;" parent="1" vertex="1">
          <mxGeometry x="370" y="493" width="110" height="30" as="geometry" />
        </mxCell>
        <mxCell id="tRHXc4Zp7QkK6JCRTx4k-13" value="" style="endArrow=classic;html=1;rounded=0;" parent="1" edge="1">
          <mxGeometry width="50" height="50" relative="1" as="geometry">
            <mxPoint x="240" y="360.3" as="sourcePoint" />
            <mxPoint x="290" y="360" as="targetPoint" />
          </mxGeometry>
        </mxCell>
        <mxCell id="tRHXc4Zp7QkK6JCRTx4k-25" value="" style="endArrow=classic;html=1;rounded=0;strokeColor=#009900;" parent="1" edge="1">
          <mxGeometry width="50" height="50" relative="1" as="geometry">
            <mxPoint x="400.25" y="440.6" as="sourcePoint" />
            <mxPoint x="450" y="440" as="targetPoint" />
          </mxGeometry>
        </mxCell>
        <mxCell id="tRHXc4Zp7QkK6JCRTx4k-36" value="" style="endArrow=classic;html=1;rounded=0;strokeColor=#009900;" parent="1" edge="1">
          <mxGeometry width="50" height="50" relative="1" as="geometry">
            <mxPoint x="400.25" y="520.6" as="sourcePoint" />
            <mxPoint x="490" y="520" as="targetPoint" />
          </mxGeometry>
        </mxCell>
        <mxCell id="tRHXc4Zp7QkK6JCRTx4k-24" value="$$T v_{S}$$" style="text;html=1;align=center;verticalAlign=middle;resizable=0;points=[];autosize=1;strokeColor=none;fillColor=none;" parent="1" vertex="1">
          <mxGeometry x="225" y="413" width="90" height="30" as="geometry" />
        </mxCell>
        <mxCell id="tRHXc4Zp7QkK6JCRTx4k-19" value="$$\tau v_{R}$$" style="text;html=1;align=center;verticalAlign=middle;resizable=0;points=[];autosize=1;strokeColor=none;fillColor=none;" parent="1" vertex="1">
          <mxGeometry x="375" y="333" width="100" height="30" as="geometry" />
        </mxCell>
        <mxCell id="tRHXc4Zp7QkK6JCRTx4k-18" value="$$\tau v_{S}$$" style="text;html=1;align=center;verticalAlign=middle;resizable=0;points=[];autosize=1;strokeColor=none;fillColor=none;" parent="1" vertex="1">
          <mxGeometry x="220" y="333" width="100" height="30" as="geometry" />
        </mxCell>
        <mxCell id="tRHXc4Zp7QkK6JCRTx4k-35" value="$$\tau&#39; v_{S}$$" style="text;html=1;align=center;verticalAlign=middle;resizable=0;points=[];autosize=1;strokeColor=none;fillColor=none;" parent="1" vertex="1">
          <mxGeometry x="220" y="493" width="100" height="30" as="geometry" />
        </mxCell>
        <mxCell id="tRHXc4Zp7QkK6JCRTx4k-1" value="" style="endArrow=none;html=1;rounded=0;" parent="1" edge="1">
          <mxGeometry width="50" height="50" relative="1" as="geometry">
            <mxPoint x="240" y="520" as="sourcePoint" />
            <mxPoint x="240" y="200" as="targetPoint" />
          </mxGeometry>
        </mxCell>
        <mxCell id="tRHXc4Zp7QkK6JCRTx4k-2" value="" style="endArrow=none;html=1;rounded=0;startArrow=classic;startFill=1;sourcePerimeterSpacing=0;" parent="1" edge="1">
          <mxGeometry width="50" height="50" relative="1" as="geometry">
            <mxPoint x="550" y="200" as="sourcePoint" />
            <mxPoint x="120" y="200" as="targetPoint" />
          </mxGeometry>
        </mxCell>
        <mxCell id="tRHXc4Zp7QkK6JCRTx4k-3" value="" style="endArrow=none;html=1;rounded=0;" parent="1" edge="1">
          <mxGeometry width="50" height="50" relative="1" as="geometry">
            <mxPoint x="400" y="520" as="sourcePoint" />
            <mxPoint x="400" y="200" as="targetPoint" />
          </mxGeometry>
        </mxCell>
        <mxCell id="tRHXc4Zp7QkK6JCRTx4k-4" value="$$\ell_0$$" style="text;html=1;align=center;verticalAlign=middle;resizable=0;points=[];autosize=1;strokeColor=none;fillColor=none;" parent="1" vertex="1">
          <mxGeometry x="281" y="160" width="80" height="30" as="geometry" />
        </mxCell>
        <mxCell id="tRHXc4Zp7QkK6JCRTx4k-6" value="" style="ellipse;whiteSpace=wrap;html=1;aspect=fixed;strokeColor=#3399FF;fillColor=#3399FF;" parent="1" vertex="1">
          <mxGeometry x="237.5" y="278" width="5" height="5" as="geometry" />
        </mxCell>
        <mxCell id="tRHXc4Zp7QkK6JCRTx4k-7" value="" style="ellipse;whiteSpace=wrap;html=1;aspect=fixed;strokeColor=#3399FF;fillColor=#3399FF;" parent="1" vertex="1">
          <mxGeometry x="397.5" y="278" width="5" height="5" as="geometry" />
        </mxCell>
        <mxCell id="tRHXc4Zp7QkK6JCRTx4k-8" value="" style="ellipse;whiteSpace=wrap;html=1;aspect=fixed;strokeColor=#3399FF;fillColor=#3399FF;" parent="1" vertex="1">
          <mxGeometry x="237.5" y="358" width="5" height="5" as="geometry" />
        </mxCell>
        <mxCell id="tRHXc4Zp7QkK6JCRTx4k-10" value="" style="ellipse;whiteSpace=wrap;html=1;aspect=fixed;strokeColor=#3399FF;fillColor=#3399FF;" parent="1" vertex="1">
          <mxGeometry x="397.5" y="358" width="5" height="5" as="geometry" />
        </mxCell>
        <mxCell id="tRHXc4Zp7QkK6JCRTx4k-11" value="" style="ellipse;whiteSpace=wrap;html=1;aspect=fixed;strokeColor=#3399FF;fillColor=#3399FF;" parent="1" vertex="1">
          <mxGeometry x="237.5" y="438" width="5" height="5" as="geometry" />
        </mxCell>
        <mxCell id="tRHXc4Zp7QkK6JCRTx4k-12" value="" style="ellipse;whiteSpace=wrap;html=1;aspect=fixed;strokeColor=#3399FF;fillColor=#3399FF;" parent="1" vertex="1">
          <mxGeometry x="397.5" y="438" width="5" height="5" as="geometry" />
        </mxCell>
        <mxCell id="tRHXc4Zp7QkK6JCRTx4k-14" value="$$t=0$$" style="text;html=1;align=center;verticalAlign=middle;resizable=0;points=[];autosize=1;strokeColor=none;fillColor=none;" parent="1" vertex="1">
          <mxGeometry x="150" y="265.5" width="70" height="30" as="geometry" />
        </mxCell>
        <mxCell id="tRHXc4Zp7QkK6JCRTx4k-15" value="$$t=\tau$$" style="text;html=1;align=center;verticalAlign=middle;resizable=0;points=[];autosize=1;strokeColor=none;fillColor=none;" parent="1" vertex="1">
          <mxGeometry x="145" y="345.5" width="80" height="30" as="geometry" />
        </mxCell>
        <mxCell id="tRHXc4Zp7QkK6JCRTx4k-16" value="$$t=\tau&#39;$$" style="text;html=1;align=center;verticalAlign=middle;resizable=0;points=[];autosize=1;strokeColor=none;fillColor=none;" parent="1" vertex="1">
          <mxGeometry x="150" y="505.5" width="80" height="30" as="geometry" />
        </mxCell>
        <mxCell id="tRHXc4Zp7QkK6JCRTx4k-17" value="" style="endArrow=classic;html=1;rounded=0;strokeColor=#009900;" parent="1" edge="1">
          <mxGeometry width="50" height="50" relative="1" as="geometry">
            <mxPoint x="402.5" y="360.3" as="sourcePoint" />
            <mxPoint x="430" y="360" as="targetPoint" />
          </mxGeometry>
        </mxCell>
        <mxCell id="tRHXc4Zp7QkK6JCRTx4k-23" value="" style="endArrow=classic;html=1;rounded=0;" parent="1" edge="1">
          <mxGeometry width="50" height="50" relative="1" as="geometry">
            <mxPoint x="242.5" y="440.6" as="sourcePoint" />
            <mxPoint x="302.5" y="440.3" as="targetPoint" />
          </mxGeometry>
        </mxCell>
        <mxCell id="tRHXc4Zp7QkK6JCRTx4k-21" value="" style="ellipse;whiteSpace=wrap;html=1;aspect=fixed;strokeColor=#3399FF;fillColor=#3399FF;" parent="1" vertex="1">
          <mxGeometry x="397.5" y="518" width="5" height="5" as="geometry" />
        </mxCell>
        <mxCell id="tRHXc4Zp7QkK6JCRTx4k-22" value="$$t=T$$" style="text;html=1;align=center;verticalAlign=middle;resizable=0;points=[];autosize=1;strokeColor=none;fillColor=none;" parent="1" vertex="1">
          <mxGeometry x="150" y="426" width="70" height="30" as="geometry" />
        </mxCell>
        <mxCell id="tRHXc4Zp7QkK6JCRTx4k-32" value="" style="ellipse;whiteSpace=wrap;html=1;aspect=fixed;strokeColor=#3399FF;fillColor=#3399FF;" parent="1" vertex="1">
          <mxGeometry x="237.5" y="518" width="5" height="5" as="geometry" />
        </mxCell>
        <mxCell id="tRHXc4Zp7QkK6JCRTx4k-34" value="" style="endArrow=classic;html=1;rounded=0;" parent="1" edge="1">
          <mxGeometry width="50" height="50" relative="1" as="geometry">
            <mxPoint x="242.5" y="520.6" as="sourcePoint" />
            <mxPoint x="340" y="520" as="targetPoint" />
          </mxGeometry>
        </mxCell>
        <mxCell id="tRHXc4Zp7QkK6JCRTx4k-33" value="" style="ellipse;whiteSpace=wrap;html=1;aspect=fixed;strokeColor=#3399FF;fillColor=#3399FF;" parent="1" vertex="1">
          <mxGeometry x="397.5" y="518" width="5" height="5" as="geometry" />
        </mxCell>
        <mxCell id="tRHXc4Zp7QkK6JCRTx4k-38" value="" style="endArrow=baseDash;startArrow=baseDash;html=1;rounded=0;startFill=0;endFill=0;" parent="1" edge="1">
          <mxGeometry width="50" height="50" relative="1" as="geometry">
            <mxPoint x="240" y="190" as="sourcePoint" />
            <mxPoint x="400" y="190" as="targetPoint" />
          </mxGeometry>
        </mxCell>
      </root>
    </mxGraphModel>
  </diagram>
</mxfile>
